<svg id="ae7ad495-543d-4c4b-9483-8059c5566fe6" xmlns="http://www.w3.org/2000/svg" xmlns:xlink="http://www.w3.org/1999/xlink" viewBox="0 0 619.92 681.93"><defs><style>.cls-1,.cls-2{fill:#38d39f;}.cls-1,.cls-10,.cls-14,.cls-6{opacity:0.1;}.cls-1,.cls-10,.cls-6{isolation:isolate;}.cls-3{fill:#3a3768;}.cls-4{fill:#fff794;}.cls-5{fill:#e6e8ec;}.cls-6{fill:#e2c700;}.cls-7{fill:url(#Degradado_sin_nombre_3);}.cls-8{fill:#8e6f7f;}.cls-9{fill:#5f5570;}.cls-11{fill:#eaeaf2;}.cls-12{fill:#bc8487;}.cls-13{fill:#ffc4d0;}</style><linearGradient id="Degradado_sin_nombre_3" x1="320.12" y1="210.44" x2="522.08" y2="210.44" gradientTransform="matrix(1, 0, 0, -1, -95.23, 672.22)" gradientUnits="userSpaceOnUse"><stop offset="0" stop-color="gray" stop-opacity="0.25"/><stop offset="0.54" stop-color="gray" stop-opacity="0.12"/><stop offset="1" stop-color="gray" stop-opacity="0.1"/></linearGradient></defs><title>bg-amarillo</title><ellipse class="cls-1" cx="310.34" cy="627.93" rx="296.75" ry="40.14"/><path class="cls-2" d="M185.26,117.33s27.07-35.27,41.83-32.53c0,0-16.4,31.43-41.83,36.12Z"/><path class="cls-2" d="M198.9,73.86s23.93-27,36.85-27c0,0-18.88,36.12-37.82,35.79Z"/><rect class="cls-3" x="465.86" y="148.43" width="8.65" height="71.29" rx="2.24"/><rect class="cls-3" x="179.49" y="115.64" width="4.85" height="23.47" rx="2.24"/><rect class="cls-3" x="179.31" y="158.61" width="5.47" height="40.85" rx="2.24"/><rect class="cls-3" x="179.4" y="213.75" width="5.2" height="41.2" rx="2.24"/><rect class="cls-3" x="181.17" y="15.03" width="289.36" height="588.08" rx="38.06"/><path class="cls-4" d="M429.71,30.3H396.52v4A18.92,18.92,0,0,1,377.6,53.22H272A18.93,18.93,0,0,1,253.1,34.31h0v-4H222a23,23,0,0,0-23,23h0V564.81a23,23,0,0,0,23,23H429.71a23,23,0,0,0,23-23V53.32a23,23,0,0,0-22.94-23Z"/><rect class="cls-5" x="299" y="55.65" width="40.41" height="8.2" rx="3.78"/><circle class="cls-5" cx="350.17" cy="59.75" r="4.66"/><rect class="cls-6" x="224.84" y="86.3" width="202.03" height="428.8"/><path class="cls-7" d="M420.68,634.81s-4.76-11.09-6.89-16.2c-1.2-2.93-3.23-3.42-4.78-3.35l.08-1,.38-4.62.08-1c3.68-.77,6.84-1.38,6.84-1.38l-2.3-118.44s-1-1.25-3.34-8.78c-1.17-3.76-6.83-8.38-12.12-12.06-.83-.57-1.64-1.12-2.44-1.65a60.26,60.26,0,0,1,6.06-4.47c3-1.75,4-11.71,4-11.71l-.5,1c.5-1,0-26.43,0-26.43L404,398.33s-1.25-31.41-11-39.64-22.1-11.11-22.1-11.11l-6.83-1.75h0l-12.59-3.24a14.29,14.29,0,0,1-1-1.81c-.13-.25-.24-.5-.36-.75A29.49,29.49,0,0,0,362.58,316a28.72,28.72,0,0,0-.39-4.72,4.49,4.49,0,0,0-.16-.89A26.45,26.45,0,0,0,365,308a13.32,13.32,0,0,0,3.57-4.39h0a6.07,6.07,0,0,0,.33-1,.54.54,0,0,1,.06-.3,3.89,3.89,0,0,0,.12-.79v-1.36a6.65,6.65,0,0,0-.1-1v-.06h0a16.77,16.77,0,0,0-.88-3.32c-1-2.52-2.24-4.88-2.7-7.56-.57-3.18.09-6.64-1.43-9.49a8.47,8.47,0,0,0-5.94-4.09,14,14,0,0,0-7.34.84,10.4,10.4,0,0,1-3.63,1,7.52,7.52,0,0,1-2.64-.64,39.71,39.71,0,0,1-8.2-4.4,39.6,39.6,0,0,0-5.86-3.83,7.89,7.89,0,0,0-6.76-.27c-3.61,1.83-4.29,6.95-7.65,9.2-2.31,1.56-5.33,1.41-8.12,1.51s-6,.79-7.33,3.21c-1,1.68-.75,3.68-.56,5.64l.06.66a2.92,2.92,0,0,0,.06.72,17.87,17.87,0,0,1-1.11,7.38c-1.34,3.57-3.9,7.09-3.81,10.74h0a7.56,7.56,0,0,0,.22,1.71,7.35,7.35,0,0,0,.28.83h0a35.48,35.48,0,0,0,1.8,3.53l.09.15c.07.14.14.28.19.41s.18.38.25.56.08.19.11.27.12.37.17.55a5.43,5.43,0,0,1,.21,1.7,15.25,15.25,0,0,0-.19,2.23,1.65,1.65,0,0,0,1.31,1.6,2.19,2.19,0,0,0,1.13-.36,17.65,17.65,0,0,0,2.49-1.7,5.49,5.49,0,0,0,.06,1,29.6,29.6,0,0,0,8.87,18.39,5.6,5.6,0,0,1-.06,1,7.59,7.59,0,0,0-.07,1.07h0L301,342.68s.06.2.18.53l-1.15.46h0c-5.68,2.29-12,5.14-15.53,7.73-1.56,1.13-3,2.06-4.26,2.83a24.5,24.5,0,0,0-10.12,12.25l-.14.37c-1,2.24-5.76,17.45-5.76,17.45s-3.51,8.47-4,14c0,0-5.76,18.19-4.26,30.16,0,0-4.51,17.2-2.75,19.93,0,0-1.8,7.4,6.09,14.85-.58.35-1.2.73-1.86,1.15-6.11,3.85-14.92,10.09-16.43,14.9-2.33,7.49-3.34,8.78-3.34,8.78l-2.36,118.26s3.16.6,6.84,1.36l.07,1,.38,4.61.09,1c-1.55-.07-3.58.47-4.78,3.36-2.14,5.11-6.83,16.19-6.83,16.19s-10.52,9.76-4.14,18.82a6.51,6.51,0,0,0,1,1.13c4.58,4.16,14.34,1.5,21.28-1.22A20.72,20.72,0,0,0,258,645.4a3.33,3.33,0,0,1,2.34-1.29,9.61,9.61,0,0,0,4.37-1.91,5.86,5.86,0,0,0,2.4-4.88.38.38,0,0,1,0-.15l-.62-13.89s-.75-9.7-3.14-9.08l-.61.15-.17-1h0l-.32-1.88-.17-1h1.33s.33-11,4.34-19.6,6.65-78.34,6.65-78.34,49.66.81,51.32-3.85h0c1,0,2,0,3.06-.07,1.67,4.66,48.54,4.88,48.54,4.88S380,583.33,384,592a39.33,39.33,0,0,1,2.1,5.73h0a63.76,63.76,0,0,1,2.26,13.87h1.33l-.18,1-.32,1.88-.17,1-.63-.14c-2.37-.62-3.13,9.09-3.13,9.09l-.63,14a5.67,5.67,0,0,0,2.32,4.88,9.87,9.87,0,0,0,4.44,1.95,3.27,3.27,0,0,1,2.35,1.29,20.83,20.83,0,0,0,8.78,7.09c7.5,2.93,18.28,5.79,22.28.09C431.2,644.54,420.68,634.81,420.68,634.81ZM294.45,460.71Zm78.44-39.91s1.26,4.74,3.51,7.22,1.13,18,1.13,18a13,13,0,0,0-2.62.42C373.19,436.12,371.6,424.71,372.89,420.8Z"/><polygon class="cls-8" points="264.91 615.67 245.28 617.62 244.73 611.05 244.35 606.53 243.82 599.92 262.36 600.9 263.84 609.38 264.15 611.23 264.16 611.23 264.91 615.67"/><polygon class="cls-8" points="407.88 600.91 407.35 607.51 406.98 612.03 406.42 618.6 386.78 616.64 387.56 612.2 387.86 610.37 389.33 601.88 407.88 600.91"/><path class="cls-9" d="M387.08,505.83l-58.38,2.74c-2.66.13-5.31.13-8,0L265,505.84V461.66H387.08Z"/><path class="cls-10" d="M387.08,505.83l-58.38,2.74c-2.66.13-5.31.13-8,0L265,505.84V461.66H387.08Z"/><path class="cls-11" d="M312.32,342.61s-19.45,6.53-26.77,11.9c-1.52,1.12-2.93,2-4.16,2.79a23.79,23.79,0,0,0-9.83,12c-.05.14-.1.26-.15.37-1,2.19-5.61,17.08-5.61,17.08s-3.42,8.3-3.9,13.67,27.82,19.77,27.82,19.77-13.67,29.77-7.57,37.34,95.19,11.22,93.23,0-5.37-29.78-3.66-34.9l30.27-22s-1.22-30.75-10.74-38.8-21.48-11-21.48-11L350.82,346s-6.68,16.6-14,18.79S313.46,356.82,312.32,342.61Z"/><path class="cls-10" d="M339.63,370.56s-8.26,6.9-12.59,0c0,0-3.9,11.66,0,15.56l-.15.8-.69,3.47-9,75.17,7.44,12.84,13.54-17-1.09-70.29-.49-4-.12-1h2.31S344.9,375.5,339.63,370.56Z"/><path class="cls-10" d="M341.59,370.56s-8.26,6.9-12.6,0c0,0-3.9,11.66,0,15.56l-.14.8-.7,3.47-9,75.17,7.44,12.84,13.54-17L339,391.12l-.49-4-.12-1h2.32S346.85,375.5,341.59,370.56Z"/><polygon class="cls-12" points="339.12 460.45 325.58 477.4 318.12 464.63 327.17 389.42 327.86 385.95 328.02 385.15 329.24 381.99 337.42 385.15 337.54 386.13 338.02 390.16 339.12 460.45"/><path class="cls-10" d="M263.84,609.37a66.21,66.21,0,0,1-12.55-1.28c-2-.51-4.59-1.07-6.93-1.57l-.54-6.61,18.54,1Z"/><path class="cls-9" d="M325.72,508.66c-1.62,4.56-50,3.76-50,3.76s-2.6,68.34-6.5,76.8S265,608.41,265,608.41s-8.45,0-13.67-1.29-13.66-2.93-13.66-2.93l2.28-115.93s1-1.22,3.25-8.55c1.47-4.72,10.06-10.83,16-14.65,3.32-2.09,5.8-3.45,5.8-3.45l28.88,1.17,17.82.72S327.35,504.1,325.72,508.66Z"/><path class="cls-10" d="M264.92,615.66l-19.64,2-.56-6.57a5.84,5.84,0,0,1,2.14.47c3.58,2.58,13.83.53,17.29-.29h0Z"/><path class="cls-12" d="M268.63,634.65a5.72,5.72,0,0,1-2.35,4.77,9.3,9.3,0,0,1-4.25,1.86,3.17,3.17,0,0,0-2.27,1.27,20.36,20.36,0,0,1-8.59,6.94c-6.77,2.66-16.29,5.27-20.75,1.2a6,6,0,0,1-1-1.11c-6.22-8.9,4-18.43,4-18.43s4.62-10.85,6.7-15.85a4.89,4.89,0,0,1,6.21-3,4.4,4.4,0,0,1,.5.21c3.91,2.81,15.75.11,18.06-.48S268,620.9,268,620.9l.62,13.6Z"/><path class="cls-10" d="M407.89,600.9l-.54,6.6c-2.34.49-4.89,1.06-7,1.57a66.67,66.67,0,0,1-12.53,1.29l1.47-8.49Z"/><path class="cls-9" d="M414.09,605.16s-8.45,1.63-13.67,2.93-13.66,1.3-13.66,1.3-.33-10.74-4.23-19.19S376,513.4,376,513.4s-45.67-.27-47.3-4.83,19.9-43.93,19.9-43.93l13.14-.68,25-1.33s4.88,2.66,10,6.24,10.67,8.13,11.82,11.81c2.27,7.33,3.25,8.55,3.25,8.55Z"/><path class="cls-10" d="M407,612l-.54,6.57-19.65-2,.78-4.44c3.46.83,13.66,2.87,17.28.3A5.79,5.79,0,0,1,407,612Z"/><path class="cls-12" d="M404.84,613.46a4.88,4.88,0,0,1,6.5,2.3,5.49,5.49,0,0,1,.21.51c2.07,5,6.71,15.87,6.71,15.87s10.25,9.52,4,18.42c-3.9,5.58-14.41,2.78-21.71-.09a20.24,20.24,0,0,1-8.59-6.94,3.22,3.22,0,0,0-2.29-1.27,9.69,9.69,0,0,1-4.33-2,5.57,5.57,0,0,1-2.25-4.77l.61-13.66s.73-9.5,3-8.91S400.93,616.27,404.84,613.46Z"/><path class="cls-13" d="M354.37,350.85l-19.71,20.89-.54.59-.71-.42c-4.12-2.44-24.73-14.88-23-18.62,1-2.12,1.56-6.56,1.86-10.37,0-.46.06-.91.1-1.35.19-3,.24-5.36.24-5.36s37.1-6.35,35.63,0c-.59,2.57.3,5.46,1.56,8,.37.74.78,1.43,1.18,2.08A31.52,31.52,0,0,0,354.37,350.85Z"/><path class="cls-10" d="M349.83,344.2a29,29,0,0,1-37.43-2.63c.19-3,.24-5.36.24-5.36s37.1-6.35,35.63,0C347.71,338.8,348.57,341.67,349.83,344.2Z"/><path class="cls-13" d="M361.61,319.9a29,29,0,0,1-57.83,2.75c-.08-.91-.12-1.83-.12-2.75a29,29,0,1,1,57.92-1.07c0,.36,0,.71,0,1.07Z"/><path class="cls-10" d="M361.25,315.27a6.93,6.93,0,0,1-5.45,1.47c-4.47-1-6-7.81-10.57-8.28s-7.61,5.86-12.23,5.74c-2-.05-3.71-1.33-5.51-2.22-3.14-1.55-8.32-2.5-11.72-1.33-5.1,1.75-6.83,6.47-10.09,10.23a15.31,15.31,0,0,1-1.83,1.77c-.07-.91-.11-1.83-.11-2.75a29,29,0,0,1,57.6-4.63Z"/><path class="cls-8" d="M327.49,311c1.8.88,3.51,2.17,5.51,2.22,4.61.12,7.63-6.24,12.22-5.74s6.1,7.27,10.59,8.28c3,.68,5.86-1.57,8.11-3.67a13,13,0,0,0,3.49-4.29c1-2.42.47-5.21-.44-7.67s-2.19-4.83-2.64-7.41c-.54-3.11.09-6.5-1.38-9.3a8.27,8.27,0,0,0-5.8-4,13.77,13.77,0,0,0-7.16.81,10.05,10.05,0,0,1-3.52,1,7.47,7.47,0,0,1-2.59-.64,38.25,38.25,0,0,1-8-4.3,36.56,36.56,0,0,0-5.69-3.75,7.67,7.67,0,0,0-6.58-.26c-3.51,1.79-4.18,6.83-7.46,9-2.25,1.52-5.19,1.36-7.9,1.47s-5.86.76-7.15,3.13c-1.15,2-.57,4.55-.43,6.89A17.61,17.61,0,0,1,299.6,300c-1.52,4-4.59,8-3.5,12.2.72,2.75,3.18,5,3,7.81a14.47,14.47,0,0,0-.19,2.18,1.61,1.61,0,0,0,1.28,1.56,1.89,1.89,0,0,0,1.1-.35,16.44,16.44,0,0,0,4.3-3.48c3.3-3.77,5-8.49,10.12-10.23C319.18,308.53,324.35,309.45,327.49,311Z"/><path class="cls-13" d="M361.08,481.43l-5.27,1.43-12.17,3.35a29.6,29.6,0,0,1-9.37,4.66c-7.44,1.88-12.26-2.22-16.26-8.57-1.61-2.53-.8-4.57,1.31-6.16,5.07-3.83,17.63-5.08,21.48-4.57a16.08,16.08,0,0,0,7.41-1.16,28.67,28.67,0,0,0,4.79-2.26Z"/><path class="cls-10" d="M361.08,481.43l-5.27,1.43c-1.51-4.56-4-10.28-7.57-12.48a28.4,28.4,0,0,0,4.8-2.26Z"/><path class="cls-10" d="M396.73,468.87c-2.18,1.77-4,3.38-4,3.38s-25.38,7.95-30.26,18c0,0-3.91-19.52-12.2-19.77,0,0,8.93-3.5,11.51-6.5l25-1.31A116.4,116.4,0,0,1,396.73,468.87Z"/><path class="cls-11" d="M396.35,392.34l5.62,8.3,1.7,25.87s.49,24.9,0,25.87l.49-1s-1,9.76-3.9,11.47-9.52,7.42-9.52,7.42-25.38,7.95-30.26,18c0,0-3.91-19.53-12.21-19.77,0,0,12.45-4.88,12.21-8.05,0,0,9.51-8.55,10.25-10.74s5.48-2.44,5.48-2.44,1.11-15.14-1.09-17.58-3.42-7.07-3.42-7.07Z"/><path class="cls-10" d="M334.27,490.84c-7.44,1.88-12.26-2.22-16.26-8.57-1.61-2.53-.8-4.56,1.31-6.16l.76.31S333.5,482.24,334.27,490.84Z"/><path class="cls-13" d="M331.19,498.64c-8.79,12.2-25.14-4.77-26.36-8.18-.44-1.24-2.11-2.35-4-3.24a44.49,44.49,0,0,0-7.57-2.51l14.53-11.83,2.78,1.12,8.56,3.42S340,486.43,331.19,498.64Z"/><path class="cls-10" d="M310.54,474c-8,3.8-9.71,9.28-9.76,13.22a44.49,44.49,0,0,0-7.57-2.51l14.53-11.83Z"/><path class="cls-10" d="M297.75,495.09s-23.43-18.55-34.65-26.6a26.8,26.8,0,0,1-3.91-3.38c3.32-2.09,5.8-3.45,5.8-3.45l28.88,1.17c.77,1.34,1.23,2.24,1.23,2.24l15.62,10.25C291.9,481.43,297.75,495.09,297.75,495.09Z"/><path class="cls-11" d="M266.51,397.71l-4.63,2.69s-5.62,17.81-4.15,29.53c0,0-4.4,16.84-2.69,19.52,0,0-2.19,9,9,17.09s34.66,26.6,34.66,26.6-5.86-13.67,12.93-19.77L296,463.12s-5.24-10.41-10.25-12.69c0,0-3.9-3.91-1.46-6.59s4.39-5.61,4.39-8.3,1-15.37,1-15.37l2.93-13.67Z"/><path class="cls-10" d="M337.53,386.11H328a1.29,1.29,0,0,1-.16-.17l.16-.8,1.22-3.16,8.18,3.16Z"/><path class="cls-12" d="M340.61,369.59s-8.26,6.89-12.59,0c0,0-3.91,11.65,0,15.56h11.71S345.87,374.53,340.61,369.59Z"/><path class="cls-10" d="M351.78,347l12.3,3.17s-11.66,30.26-14.23,30.26l-14.76-7.07Z"/><path class="cls-10" d="M354.37,350.85l-19.71,20.89-.54.59-.71-.42,17.23-26.28.42.69A32.06,32.06,0,0,0,354.37,350.85Z"/><path class="cls-11" d="M350.8,346l12.3,3.17s-11.65,30.27-14.22,30.27l-14.76-7.08Z"/><path class="cls-10" d="M311.34,343.59,300.68,347s10.5,31.73,13.42,33.43l19-7.07Z"/><path class="cls-10" d="M334.66,371.74l-.54.59s-25.63-14.89-23.68-19c1-2.12,1.56-6.56,1.86-10.37v-.6Z"/><path class="cls-11" d="M312.32,342.61,301.66,346s10.49,31.73,13.42,33.44l19-7.08Z"/><path class="cls-10" d="M286.93,394.44s6.42,1.14,6.3,7.81,2.65-8.62,2.65-8.62Z"/><path class="cls-10" d="M288.39,414.94s-1.79,10.09,0,19.21,1.63,12.2,3,12.69S288.39,414.94,288.39,414.94Z"/><path class="cls-10" d="M370.39,414a3.54,3.54,0,0,0-3.06,3.95,3.36,3.36,0,0,0,.14.61C368.29,422.61,370.39,414,370.39,414Z"/><path class="cls-10" d="M258.78,448.14s20.92-1.79,24.41,1.95S258.78,448.14,258.78,448.14Z"/><path class="cls-10" d="M380.16,449.55s15.29-1.88,18.88.72"/><path class="cls-10" d="M386.35,452s9.11.32,11.22,1.46"/><path class="cls-10" d="M388.13,455.31s8.3-.32,9.44,1"/><path class="cls-10" d="M271.11,501.19s7.11,3.7,6.39,7.48S271.11,501.19,271.11,501.19Z"/><path class="cls-10" d="M265,503s10.85,14.07,9.37,18.7S265,503,265,503Z"/><path class="cls-10" d="M381.22,505.32s-5.37,4.43-5.22,8.08"/><path class="cls-10" d="M257.24,592.47s0,4.15,7.68,10.25"/><path class="cls-10" d="M392.85,582.71s-.82,8.63-8.3,13.1"/><g class="cls-14"><path d="M300.68,289.8c0-.67-.12-1.37-.17-2.05a19.66,19.66,0,0,0,.13,4.47A17.77,17.77,0,0,0,300.68,289.8Z"/><path d="M299.13,317.08c.15-2.84-2.31-5.11-3-7.81,0-.14-.06-.27-.08-.41a7.63,7.63,0,0,0,.08,3.33c.58,2.24,2.32,4.15,2.86,6.32C299,318,299.11,317.54,299.13,317.08Z"/><path d="M367.41,304.88a13.05,13.05,0,0,1-3.49,4.29c-2.27,2.1-5.09,4.35-8.11,3.67-4.48-1-6-7.81-10.59-8.28s-7.61,5.86-12.22,5.73c-2-.05-3.71-1.33-5.51-2.22-3.14-1.55-8.31-2.5-11.72-1.32-5.1,1.74-6.83,6.47-10.11,10.23a16.28,16.28,0,0,1-4.3,3.49,2,2,0,0,1-1.1.34,1.33,1.33,0,0,1-1.09-.87V320a14.72,14.72,0,0,0-.19,2.19,1.61,1.61,0,0,0,1.28,1.55,2,2,0,0,0,1.1-.34,16.28,16.28,0,0,0,4.3-3.49c3.3-3.76,5-8.49,10.11-10.23,3.45-1.18,8.61-.23,11.72,1.32,1.8.89,3.51,2.17,5.51,2.22,4.61.12,7.63-6.24,12.22-5.73s6.11,7.26,10.59,8.28c3,.68,5.86-1.57,8.11-3.67a13.05,13.05,0,0,0,3.49-4.29,8.26,8.26,0,0,0,.42-4.43A7.77,7.77,0,0,1,367.41,304.88Z"/></g><path class="cls-10" d="M233.49,631.16s8-2.46,11.28,2.21"/><path class="cls-10" d="M418.26,632.14s-13.21-.77-12.69,2.8"/></svg>