<svg id="ae7ad495-543d-4c4b-9483-8059c5566fe6" xmlns="http://www.w3.org/2000/svg" xmlns:xlink="http://www.w3.org/1999/xlink" viewBox="0 0 523.56 497.59"><defs><style>.cls-1,.cls-2{fill:#38d39f;}.cls-1,.cls-10,.cls-15,.cls-6{opacity:0.1;}.cls-1,.cls-10,.cls-6{isolation:isolate;}.cls-3{fill:#3a3768;}.cls-4,.cls-6{fill:#fff;}.cls-5{fill:#e6e8ec;}.cls-7{fill:url(#Degradado_sin_nombre);}.cls-8{fill:#8e6f7f;}.cls-9{fill:#5f5570;}.cls-11{fill:#eaeaf2;}.cls-12{fill:#fced35;}.cls-13{fill:#bc8487;}.cls-14{fill:#ffc4d0;}.cls-16{fill:#ffd037;}.cls-17{font-size:84.03px;fill:#ffde1d;stroke-width:0.56px;font-family:JavaneseText, Javanese Text;}.cls-17,.cls-18{stroke:#ffdd15;stroke-miterlimit:10;}.cls-18{fill:#fcd722;stroke-width:5.95px;}.cls-19{font-size:24px;fill:#ffce00;font-family:FrancoisOne-Regular, Francois One;letter-spacing:0em;}</style><linearGradient id="Degradado_sin_nombre" x1="347.09" y1="159.31" x2="492.18" y2="159.31" gradientTransform="matrix(1, 0, 0, -1, -95.23, 811.82)" gradientUnits="userSpaceOnUse"><stop offset="0" stop-color="gray" stop-opacity="0.25"/><stop offset="0.54" stop-color="gray" stop-opacity="0.12"/><stop offset="1" stop-color="gray" stop-opacity="0.1"/></linearGradient></defs><title>bg-copia-amarillo</title><ellipse class="cls-1" cx="310.38" cy="450.7" rx="213.18" ry="29.52"/><path class="cls-2" d="M222.63,382.25s19.44-25.93,30-23.92c0,0-11.78,23.12-30,26.57Z" transform="translate(-2.86 -323.98)"/><path class="cls-2" d="M232.43,350.29s17.19-19.88,26.47-19.83c0,0-13.57,26.56-27.17,26.32Z" transform="translate(-2.86 -323.98)"/><path class="cls-3" d="M426.58,422.08h3a1.63,1.63,0,0,1,1.61,1.65v49.13a1.63,1.63,0,0,1-1.61,1.64h-3a1.63,1.63,0,0,1-1.61-1.64V423.73A1.63,1.63,0,0,1,426.58,422.08Z" transform="translate(-2.86 -323.98)"/><path class="cls-3" d="M220.08,381h.28a1.63,1.63,0,0,1,1.6,1.65v14a1.63,1.63,0,0,1-1.6,1.64h-.28a1.63,1.63,0,0,1-1.6-1.64v-14A1.63,1.63,0,0,1,220.08,381Z" transform="translate(-2.86 -323.98)"/><path class="cls-3" d="M220,412.61h.71a1.63,1.63,0,0,1,1.61,1.65V441a1.63,1.63,0,0,1-1.61,1.65H220a1.63,1.63,0,0,1-1.61-1.65V414.26A1.63,1.63,0,0,1,220,412.61Z" transform="translate(-2.86 -323.98)"/><path class="cls-3" d="M220,453.16h.53a1.62,1.62,0,0,1,1.6,1.64v27a1.62,1.62,0,0,1-1.6,1.64H220a1.62,1.62,0,0,1-1.61-1.64v-27A1.62,1.62,0,0,1,220,453.16Z" transform="translate(-2.86 -323.98)"/><path class="cls-3" d="M247.79,324H401c15.1,0,27.34,12.53,27.34,28V728.44c0,15.45-12.24,28-27.34,28H247.79c-15.1,0-27.34-12.54-27.34-28V352C220.45,336.51,232.69,324,247.79,324Z" transform="translate(-2.86 -323.98)"/><path class="cls-4" d="M399,335.22H375.16v2.93a13.76,13.76,0,0,1-13.6,13.92H285.72a13.77,13.77,0,0,1-13.6-13.91h0v-2.93H249.8a16.7,16.7,0,0,0-16.51,16.9h0V728.26a16.7,16.7,0,0,0,16.51,16.9H399a16.7,16.7,0,0,0,16.51-16.9V352.15A16.7,16.7,0,0,0,399,335.22Z" transform="translate(-2.86 -323.98)"/><path class="cls-5" d="M307.05,336.9h23.6a2.74,2.74,0,0,1,2.71,2.78v.47a2.75,2.75,0,0,1-2.71,2.78h-23.6a2.75,2.75,0,0,1-2.71-2.78v-.47A2.74,2.74,0,0,1,307.05,336.9Z" transform="translate(-2.86 -323.98)"/><ellipse class="cls-5" cx="338.24" cy="15.93" rx="3.35" ry="3.42"/><rect class="cls-6" x="248.96" y="52.41" width="145.14" height="315.32"/><path class="cls-7" d="M392.51,779.74s-3.42-8.15-4.95-11.92a3.35,3.35,0,0,0-3.43-2.46l.06-.72.27-3.39.06-.72c2.64-.57,4.91-1,4.91-1l-1.65-87.09s-.7-.92-2.4-6.46c-.84-2.77-4.91-6.16-8.71-8.87-.6-.42-1.18-.83-1.75-1.21a43.16,43.16,0,0,1,4.35-3.29c2.16-1.29,2.88-8.62,2.88-8.62l-.36.72c.36-.72,0-19.43,0-19.43l-1.26-19.43s-.9-23.09-7.91-29.14a42.55,42.55,0,0,0-15.87-8.17l-4.91-1.29h0l-9-2.38a11.3,11.3,0,0,1-.7-1.34c-.09-.18-.18-.36-.26-.55a21.82,21.82,0,0,0,8.94-17.69,22.47,22.47,0,0,0-.27-3.48,3.71,3.71,0,0,0-.12-.65,18.2,18.2,0,0,0,2.1-1.73,9.76,9.76,0,0,0,2.57-3.23h0a4.69,4.69,0,0,0,.24-.75.45.45,0,0,1,0-.22,3.09,3.09,0,0,0,.08-.58v-1a4.5,4.5,0,0,0-.07-.72,0,0,0,0,0,0,0h0a12.68,12.68,0,0,0-.63-2.44,29.64,29.64,0,0,1-1.94-5.57c-.41-2.33.06-4.88-1-7a6.1,6.1,0,0,0-4.28-3,9.8,9.8,0,0,0-5.27.62,7.4,7.4,0,0,1-2.6.71,5.42,5.42,0,0,1-1.9-.47,27.94,27.94,0,0,1-5.89-3.24,28.83,28.83,0,0,0-4.21-2.81,5.55,5.55,0,0,0-4.85-.2c-2.6,1.35-3.09,5.11-5.5,6.77-1.67,1.15-3.83,1-5.84,1.1s-4.28.58-5.27,2.36a7,7,0,0,0-.4,4.15l.05.49a2.41,2.41,0,0,0,0,.53,13.51,13.51,0,0,1-.79,5.42c-1,2.63-2.81,5.22-2.75,7.9h0a5.31,5.31,0,0,0,.17,1.26,6.17,6.17,0,0,0,.19.61h0a26.1,26.1,0,0,0,1.3,2.59l.06.12c.05.1.1.2.14.3s.13.27.18.41a1.28,1.28,0,0,0,.08.2c0,.07.09.27.12.4a3.79,3.79,0,0,1,.15,1.25,11.46,11.46,0,0,0-.13,1.65,1.2,1.2,0,0,0,.94,1.17,1.58,1.58,0,0,0,.81-.26,13.11,13.11,0,0,0,1.79-1.26,4.53,4.53,0,0,0,0,.72,22,22,0,0,0,6.37,13.52,4.47,4.47,0,0,1,0,.71,5.24,5.24,0,0,0,0,.79h0l-7.86,2.52s0,.15.13.39l-.83.34h0c-4.07,1.69-8.61,3.78-11.15,5.68-1.12.84-2.15,1.52-3.07,2.09a17.86,17.86,0,0,0-7.26,9l-.11.27c-.7,1.64-4.14,12.83-4.14,12.83s-2.51,6.23-2.88,10.26c0,0-4.14,13.38-3.06,22.18,0,0-3.24,12.65-2,14.66,0,0-1.29,5.44,4.37,10.92-.41.25-.86.53-1.33.84-4.39,2.83-10.72,7.42-11.8,11-1.68,5.5-2.4,6.46-2.4,6.46l-1.7,87s2.27.44,4.91,1l.06.72.27,3.39.06.71a3.39,3.39,0,0,0-3.43,2.47c-1.54,3.76-4.91,11.91-4.91,11.91s-7.56,7.18-3,13.84a5.11,5.11,0,0,0,.71.83c3.28,3.06,10.3,1.1,15.28-.9a15,15,0,0,0,6.32-5.21,2.36,2.36,0,0,1,1.68-.95,6.79,6.79,0,0,0,3.13-1.4,4.34,4.34,0,0,0,1.73-3.59v-.11l-.44-10.22s-.54-7.13-2.26-6.67l-.44.11-.12-.72h0l-.23-1.39-.12-.72h.95s.24-8.07,3.12-14.41,4.78-57.61,4.78-57.61,35.68.6,36.87-2.83h0c.7,0,1.46,0,2.19,0,1.2,3.42,34.87,3.59,34.87,3.59s1.92,51.32,4.79,57.67a29.72,29.72,0,0,1,1.51,4.21h0a47.57,47.57,0,0,1,1.62,10.2h1l-.13.72-.23,1.38-.12.72-.46-.11c-1.7-.45-2.24,6.68-2.24,6.68l-.46,10.28a4.22,4.22,0,0,0,1.67,3.59,7,7,0,0,0,3.19,1.44,2.35,2.35,0,0,1,1.69.94,15,15,0,0,0,6.31,5.22c5.38,2.15,13.13,4.25,16,.07C400.07,786.89,392.51,779.74,392.51,779.74Zm-90.68-128Zm56.35-29.35a15.8,15.8,0,0,0,2.52,5.31c1.61,1.83.81,13.2.81,13.2a9.87,9.87,0,0,0-1.87.31C358.39,633.63,357.25,625.24,358.18,622.37Z" transform="translate(-2.86 -323.98)"/><polygon class="cls-8" points="277.75 441.68 263.64 443.12 263.25 438.29 262.98 434.96 262.59 430.1 275.92 430.82 276.97 437.06 277.2 438.42 277.21 438.42 277.75 441.68"/><polygon class="cls-8" points="380.46 430.83 380.07 435.68 379.8 439 379.4 443.83 365.29 442.4 365.85 439.13 366.07 437.78 367.13 431.54 380.46 430.83"/><path class="cls-9" d="M368.37,684.9l-41.94,2a54.57,54.57,0,0,1-5.72,0l-40.07-2V652.41h87.73Z" transform="translate(-2.86 -323.98)"/><path class="cls-10" d="M368.37,684.9l-41.94,2a54.57,54.57,0,0,1-5.72,0l-40.07-2V652.41h87.73Z" transform="translate(-2.86 -323.98)"/><path class="cls-11" d="M314.67,564.87s-14,4.81-19.23,8.75c-1.1.82-2.11,1.5-3,2a17.36,17.36,0,0,0-7.06,8.82c0,.1-.07.18-.11.26-.7,1.62-4,12.56-4,12.56s-2.46,6.11-2.81,10.06,20,14.53,20,14.53-9.82,21.9-5.44,27.46,68.38,8.26,67,0-3.86-21.89-2.63-25.66l21.74-16.16s-.87-22.61-7.71-28.53a42.32,42.32,0,0,0-15.43-8.08l-13.61-3.59s-4.8,12.21-10.06,13.82S315.49,575.32,314.67,564.87Z" transform="translate(-2.86 -323.98)"/><path class="cls-10" d="M334.29,585.43s-5.93,5.07-9.05,0c0,0-2.8,8.57,0,11.44l-.1.58-.5,2.56-6.5,55.27,5.35,9.44,9.73-12.49-.79-51.68-.35-3-.08-.72h1.66S338.07,589.06,334.29,585.43Z" transform="translate(-2.86 -323.98)"/><path class="cls-10" d="M335.69,585.43s-5.93,5.07-9.05,0c0,0-2.8,8.57,0,11.44l-.1.58L326,600l-6.49,55.27,5.34,9.44,9.73-12.49-.79-51.68-.35-3-.08-.72h1.66S339.47,589.06,335.69,585.43Z" transform="translate(-2.86 -323.98)"/><polygon class="cls-12" points="331.05 327.54 321.33 340.01 315.97 330.62 322.47 275.31 322.97 272.76 323.08 272.17 323.96 269.84 329.83 272.17 329.92 272.89 330.27 275.85 331.05 327.54"/><path class="cls-10" d="M279.84,761a46.16,46.16,0,0,1-9-.94c-1.47-.37-3.31-.79-5-1.15l-.4-4.86,13.33.72Z" transform="translate(-2.86 -323.98)"/><path class="cls-9" d="M324.3,687c-1.17,3.35-35.94,2.76-35.94,2.76s-1.87,50.25-4.67,56.48-3.05,14.11-3.05,14.11a50.81,50.81,0,0,1-9.81-1c-3.75-1-9.82-2.16-9.82-2.16L262.65,672s.7-.89,2.33-6.28c1.06-3.47,7.23-8,11.5-10.77,2.38-1.54,4.16-2.54,4.16-2.54l20.75.86,12.81.53S325.47,683.63,324.3,687Z" transform="translate(-2.86 -323.98)"/><path class="cls-10" d="M280.62,765.66l-14.11,1.43-.4-4.83a4.07,4.07,0,0,1,1.53.35c2.58,1.89,9.93.38,12.42-.22h0Z" transform="translate(-2.86 -323.98)"/><path class="cls-13" d="M283.28,779.62a4.28,4.28,0,0,1-1.69,3.51,6.71,6.71,0,0,1-3,1.37,2.29,2.29,0,0,0-1.63.93,14.68,14.68,0,0,1-6.18,5.11c-4.86,2-11.69,3.87-14.9.87a4.53,4.53,0,0,1-.7-.81c-4.47-6.54,2.9-13.55,2.9-13.55s3.32-8,4.81-11.66a3.51,3.51,0,0,1,4.47-2.22l.35.15c2.81,2.07,11.31.09,13-.35s2.19,6.54,2.19,6.54l.45,10Z" transform="translate(-2.86 -323.98)"/><path class="cls-10" d="M383.33,754.8l-.4,4.86c-1.67.36-3.5.78-5,1.15a46.25,46.25,0,0,1-9,1l1.06-6.24Z" transform="translate(-2.86 -323.98)"/><path class="cls-9" d="M387.78,757.94s-6.07,1.2-9.82,2.15a50.37,50.37,0,0,1-9.82,1s-.23-7.9-3-14.12-4.68-56.47-4.68-56.47-32.81-.19-34-3.55,14.3-32.3,14.3-32.3l9.43-.5,18-1a82.4,82.4,0,0,1,7.18,4.59c3.68,2.63,7.67,6,8.49,8.68,1.63,5.39,2.34,6.29,2.34,6.29Z" transform="translate(-2.86 -323.98)"/><path class="cls-10" d="M382.67,763l-.4,4.83-14.11-1.44.56-3.26c2.49.61,9.82,2.11,12.41.21A4.1,4.1,0,0,1,382.67,763Z" transform="translate(-2.86 -323.98)"/><path class="cls-13" d="M381.13,764a3.49,3.49,0,0,1,4.68,1.69l.15.38c1.48,3.67,4.81,11.66,4.81,11.66s7.37,7,2.9,13.55c-2.8,4.11-10.35,2-15.6-.06a14.66,14.66,0,0,1-6.17-5.11,2.31,2.31,0,0,0-1.64-.93,6.74,6.74,0,0,1-3.11-1.44,4.12,4.12,0,0,1-1.62-3.5l.44-10s.52-7,2.19-6.55S378.33,766.11,381.13,764Z" transform="translate(-2.86 -323.98)"/><path class="cls-14" d="M344.88,570.93,330.72,586.3l-.39.43-.52-.31c-3-1.8-17.76-10.94-16.49-13.69.7-1.57,1.11-4.83,1.33-7.63,0-.34,0-.67.07-1,.14-2.22.18-4,.18-4s26.65-4.66,25.6,0a9.33,9.33,0,0,0,1.11,5.88c.27.54.56,1.05.85,1.53A23.68,23.68,0,0,0,344.88,570.93Z" transform="translate(-2.86 -323.98)"/><path class="cls-10" d="M341.61,566a20.45,20.45,0,0,1-26.89-1.93c.14-2.22.18-4,.18-4s26.65-4.66,25.6,0A9.44,9.44,0,0,0,341.61,566Z" transform="translate(-2.86 -323.98)"/><path class="cls-14" d="M350.08,548.17a20.8,20.8,0,0,1-41.55,2c-.06-.67-.09-1.34-.09-2a20.82,20.82,0,1,1,41.62-.78v.78Z" transform="translate(-2.86 -323.98)"/><path class="cls-10" d="M349.82,544.77a4.93,4.93,0,0,1-3.92,1.08c-3.21-.72-4.31-5.74-7.59-6.09s-5.47,4.31-8.79,4.22c-1.4,0-2.67-1-4-1.63-2.25-1.14-6-1.84-8.41-1-3.67,1.29-4.91,4.76-7.25,7.52a10.72,10.72,0,0,1-1.31,1.3c-.06-.67-.09-1.34-.09-2a20.78,20.78,0,0,1,41.38-3.4Z" transform="translate(-2.86 -323.98)"/><path class="cls-8" d="M325.56,541.64c1.29.64,2.53,1.59,4,1.63,3.32.08,5.48-4.59,8.78-4.23s4.38,5.35,7.61,6.09c2.17.5,4.21-1.15,5.83-2.7a9.36,9.36,0,0,0,2.5-3.15,8.15,8.15,0,0,0-.31-5.64,32.6,32.6,0,0,1-1.9-5.45c-.39-2.28.07-4.78-1-6.83a6,6,0,0,0-4.17-3,9.62,9.62,0,0,0-5.14.6,7.21,7.21,0,0,1-2.53.72,5.26,5.26,0,0,1-1.86-.47,27.27,27.27,0,0,1-5.74-3.17,26.84,26.84,0,0,0-4.09-2.75,5.4,5.4,0,0,0-4.72-.2c-2.53,1.32-3,5-5.36,6.63-1.62,1.12-3.73,1-5.68,1.08s-4.21.56-5.14,2.31c-.82,1.5-.41,3.34-.3,5.06a13.29,13.29,0,0,1-.78,5.31c-1.09,3-3.3,5.9-2.51,9,.51,2,2.28,3.69,2.17,5.75a10.68,10.68,0,0,0-.13,1.6A1.17,1.17,0,0,0,306,551a1.45,1.45,0,0,0,.78-.26,11.89,11.89,0,0,0,3.09-2.56c2.38-2.77,3.6-6.24,7.27-7.53C319.6,539.81,323.31,540.49,325.56,541.64Z" transform="translate(-2.86 -323.98)"/><path class="cls-14" d="M349.7,667l-3.79,1-8.75,2.47a21,21,0,0,1-6.72,3.42c-5.35,1.39-8.81-1.63-11.69-6.29-1.15-1.87-.57-3.36.94-4.53,3.65-2.83,12.67-3.74,15.43-3.37a11.33,11.33,0,0,0,5.33-.85,20.17,20.17,0,0,0,3.44-1.66Z" transform="translate(-2.86 -323.98)"/><path class="cls-10" d="M349.7,667l-3.79,1c-1.09-3.35-2.88-7.56-5.44-9.17a20.32,20.32,0,0,0,3.45-1.67Z" transform="translate(-2.86 -323.98)"/><path class="cls-10" d="M375.31,657.72c-1.57,1.3-2.9,2.48-2.9,2.48s-18.24,5.85-21.74,13.21c0,0-2.81-14.36-8.77-14.54,0,0,6.42-2.57,8.27-4.78l18-1A81.43,81.43,0,0,1,375.31,657.72Z" transform="translate(-2.86 -323.98)"/><path class="cls-11" d="M375,601.44l4,6.1,1.23,19s.35,18.3,0,19l.35-.72s-.7,7.18-2.81,8.44a75.14,75.14,0,0,0-6.84,5.46s-18.23,5.85-21.74,13.2c0,0-2.8-14.35-8.76-14.53,0,0,8.94-3.59,8.76-5.93,0,0,6.84-6.28,7.37-7.89s3.94-1.8,3.94-1.8.79-11.12-.79-12.92a15.2,15.2,0,0,1-2.45-5.2Z" transform="translate(-2.86 -323.98)"/><path class="cls-10" d="M330.44,673.87c-5.35,1.38-8.81-1.63-11.69-6.3-1.15-1.86-.57-3.36.94-4.53l.55.23S329.88,667.54,330.44,673.87Z" transform="translate(-2.86 -323.98)"/><path class="cls-14" d="M328.22,679.61c-6.31,9-18.06-3.51-18.93-6-.32-.91-1.52-1.72-2.9-2.38a30.56,30.56,0,0,0-5.44-1.84l10.44-8.7,2,.82,6.15,2.52S334.53,670.63,328.22,679.61Z" transform="translate(-2.86 -323.98)"/><path class="cls-10" d="M313.39,661.49c-5.75,2.8-7,6.82-7,9.72a31.11,31.11,0,0,0-5.44-1.84l10.44-8.7Z" transform="translate(-2.86 -323.98)"/><path class="cls-10" d="M304.2,677s-16.83-13.64-24.9-19.56a20.61,20.61,0,0,1-2.8-2.49c2.38-1.53,4.17-2.54,4.17-2.54l20.74.86c.55,1,.88,1.65.88,1.65l11.23,7.54C300,667,304.2,677,304.2,677Z" transform="translate(-2.86 -323.98)"/><path class="cls-11" d="M281.76,605.39l-3.33,2s-4,13.1-3,21.71c0,0-3.16,12.38-1.93,14.36,0,0-1.58,6.64,6.49,12.56s24.89,19.56,24.89,19.56-4.2-10,9.3-14.53L303,653.49s-3.76-7.65-7.36-9.33c0,0-2.8-2.88-1.05-4.85s3.15-4.13,3.15-6.1.71-11.31.71-11.31l2.1-10Z" transform="translate(-2.86 -323.98)"/><path class="cls-10" d="M332.78,596.86h-6.84a.69.69,0,0,1-.11-.13l.11-.59.88-2.32,5.88,2.32Z" transform="translate(-2.86 -323.98)"/><path class="cls-12" d="M335,584.71s-5.93,5.07-9.05,0c0,0-2.8,8.57,0,11.44h8.42S338.77,588.34,335,584.71Z" transform="translate(-2.86 -323.98)"/><path class="cls-10" d="M343,568.06l8.84,2.33s-8.37,22.26-10.22,22.26L331,587.44Z" transform="translate(-2.86 -323.98)"/><path class="cls-10" d="M344.88,570.93,330.72,586.3l-.39.43-.52-.31,12.38-19.33.3.51A23.2,23.2,0,0,0,344.88,570.93Z" transform="translate(-2.86 -323.98)"/><path class="cls-11" d="M342.31,567.34l8.84,2.34s-8.37,22.25-10.22,22.25l-10.6-5.2Z" transform="translate(-2.86 -323.98)"/><path class="cls-10" d="M314,565.59l-7.65,2.47s7.54,23.33,9.64,24.59l13.68-5.21Z" transform="translate(-2.86 -323.98)"/><path class="cls-10" d="M330.72,586.3l-.39.43s-18.41-11-17-14c.7-1.57,1.11-4.83,1.33-7.63v-.44Z" transform="translate(-2.86 -323.98)"/><path class="cls-11" d="M314.67,564.87,307,567.34s7.54,23.33,9.64,24.59l13.68-5.2Z" transform="translate(-2.86 -323.98)"/><path class="cls-10" d="M296.42,603a5.64,5.64,0,0,1,4.53,5.74c-.08,4.9,1.91-6.34,1.91-6.34Z" transform="translate(-2.86 -323.98)"/><path class="cls-10" d="M297.48,618.06a45.3,45.3,0,0,0,0,14.12c1.28,6.71,1.17,9,2.16,9.33S297.48,618.06,297.48,618.06Z" transform="translate(-2.86 -323.98)"/><path class="cls-10" d="M356.39,617.34a2.59,2.59,0,0,0-2.2,2.91,3.58,3.58,0,0,0,.09.45C354.87,623.7,356.39,617.34,356.39,617.34Z" transform="translate(-2.86 -323.98)"/><path class="cls-10" d="M276.2,642.47s15-1.31,17.54,1.44S276.2,642.47,276.2,642.47Z" transform="translate(-2.86 -323.98)"/><path class="cls-10" d="M363.4,643.51s11-1.39,13.57.53" transform="translate(-2.86 -323.98)"/><path class="cls-10" d="M367.85,645.34s6.54.24,8.06,1.08" transform="translate(-2.86 -323.98)"/><path class="cls-10" d="M369.13,647.75s6-.24,6.78.71" transform="translate(-2.86 -323.98)"/><path class="cls-10" d="M285.06,681.49s5.11,2.72,4.59,5.49S285.06,681.49,285.06,681.49Z" transform="translate(-2.86 -323.98)"/><path class="cls-10" d="M280.64,682.81s7.8,10.34,6.74,13.75S280.64,682.81,280.64,682.81Z" transform="translate(-2.86 -323.98)"/><path class="cls-10" d="M364.17,684.52s-3.86,3.25-3.76,5.94" transform="translate(-2.86 -323.98)"/><path class="cls-10" d="M275.1,748.61s0,3,5.52,7.54" transform="translate(-2.86 -323.98)"/><path class="cls-10" d="M372.52,741.43s-.59,6.34-6,9.63" transform="translate(-2.86 -323.98)"/><g class="cls-15"><path d="M306.31,526c0-.5-.09-1-.13-1.51a14.48,14.48,0,0,0,.1,3.29A13.22,13.22,0,0,0,306.31,526Z" transform="translate(-2.86 -323.98)"/><path d="M305.19,546.09c.11-2.08-1.66-3.75-2.17-5.74a1.5,1.5,0,0,1-.06-.29,5.58,5.58,0,0,0,.06,2.44c.41,1.65,1.66,3.06,2.05,4.65C305.11,546.78,305.18,546.44,305.19,546.09Z" transform="translate(-2.86 -323.98)"/><path d="M354.24,537.13a9.59,9.59,0,0,1-2.5,3.15c-1.64,1.54-3.66,3.2-5.83,2.7-3.22-.72-4.33-5.74-7.61-6.09s-5.46,4.31-8.78,4.22c-1.4,0-2.67-1-4-1.63-2.25-1.15-6-1.84-8.41-1-3.67,1.28-4.91,4.76-7.27,7.52a11.85,11.85,0,0,1-3.08,2.57,1.43,1.43,0,0,1-.8.25,1,1,0,0,1-.78-.64v0a10.81,10.81,0,0,0-.13,1.61A1.18,1.18,0,0,0,306,551a1.51,1.51,0,0,0,.8-.25,12.05,12.05,0,0,0,3.08-2.57c2.37-2.77,3.6-6.24,7.27-7.53,2.47-.86,6.18-.16,8.41,1,1.29.65,2.53,1.59,4,1.63,3.32.08,5.48-4.59,8.78-4.22s4.39,5.35,7.61,6.09c2.17.5,4.21-1.15,5.83-2.7a9.49,9.49,0,0,0,2.5-3.15,6.14,6.14,0,0,0,.3-3.26A5.36,5.36,0,0,1,354.24,537.13Z" transform="translate(-2.86 -323.98)"/></g><path class="cls-10" d="M258,777.06s5.73-1.81,8.11,1.62" transform="translate(-2.86 -323.98)"/><path class="cls-10" d="M390.77,777.77s-9.48-.56-9.11,2.07" transform="translate(-2.86 -323.98)"/><ellipse class="cls-1" cx="62.63" cy="493.45" rx="24.48" ry="4.14"/><ellipse class="cls-1" cx="108.23" cy="489.53" rx="18.89" ry="3.27"/><path class="cls-16" d="M119.23,739.82c0,1.82-.19,3.29-.44,3.29s-.44-1.47-.44-3.29.24-1,.49-1S119.23,738,119.23,739.82Z" transform="translate(-2.86 -323.98)"/><path class="cls-16" d="M121.69,742c-1.55.87-2.91,1.39-3,1.17s1-1.11,2.61-2,.94-.23,1.06,0S123.25,741.12,121.69,742Z" transform="translate(-2.86 -323.98)"/><path class="cls-10" d="M13.85,765.26a8.35,8.35,0,0,0-1,2.06C4.3,777.59-.24,787.18,8,787.42c7.66.23,16.83,14.23,19,17.76q-.12.42-.27.81S16,787.67,7.19,787.42,4.2,776.28,13.85,765.26Z" transform="translate(-2.86 -323.98)"/><path class="cls-16" d="M125.79,746.3c0,2.3.26,4.16.58,4.16s.58-1.86.58-4.16-.32-1.22-.64-1.22S125.79,744,125.79,746.3Z" transform="translate(-2.86 -323.98)"/><path class="cls-16" d="M122.61,749.05c2,1.1,3.77,1.76,3.93,1.48s-1.37-1.4-3.39-2.5-1.21-.3-1.37,0S120.59,748,122.61,749.05Z" transform="translate(-2.86 -323.98)"/><text class="cls-17" transform="translate(287.98 107.15)">H</text><circle class="cls-18" cx="320.74" cy="75.24" r="11.08"/><text class="cls-19" transform="translate(278.71 134.42) scale(1.29 1)">HORUS</text></svg>