<?xml version="1.0" encoding="utf-8"?>
<!-- Generator: Adobe Illustrator 25.0.0, SVG Export Plug-In . SVG Version: 6.00 Build 0)  -->
<svg version="1.1" id="Laag_1" xmlns="http://www.w3.org/2000/svg" xmlns:xlink="http://www.w3.org/1999/xlink" x="0px" y="0px"
	 viewBox="0 0 1306.9 546.8" style="enable-background:new 0 0 1306.9 546.8;" xml:space="preserve">
<style type="text/css">
	.st0{fill:#1A237E;}
	.st1{fill:none;}
</style>
<path class="st0" d="M47.9,416.4V124.2h69.2v116.2h60.7V124.2h69.4v292.2h-69.4V309.8h-60.7v106.6H47.9L47.9,416.4z M389.7,196.6
	c-5.1,3.6-8.8,11.1-11,22.3s-3.4,30.7-3.4,58.7s2.2,46.6,6.8,56.3c4.6,9.7,14.9,14.4,31,14.4s27-5,32.3-15.1s7.9-27.4,7.9-51.6
	c0-24.3-0.4-41.1-1.4-50.9c-0.5-8.3-2.5-16.5-5.9-24.1c-2.1-5.4-6.3-9.8-11.7-12.2c-7.1-2.4-14.6-3.3-22-3.1
	C402.2,191.1,394.8,193,389.7,196.6L389.7,196.6z M319.7,368.6c-5.3-12.7-8.9-26.2-10.5-40c-4.3-35.9-4.3-72.3-0.2-108.2
	c1.6-13,4.1-25.8,7.6-38.4c2.8-9.6,7.1-18.7,12.9-26.9c4.6-6.7,10.1-12.5,16.4-17.5c6.1-4.6,13-8,20.3-10.2c13.2-4,26.8-6,40.6-5.8
	c14.6,0,25.6,0.4,32.9,1.1c7.7,0.9,15.3,2.5,22.8,4.7c7.4,2.1,14.3,5.6,20.4,10.2c6.3,5,11.8,10.9,16.4,17.5
	c5.6,8.2,9.9,17.1,12.6,26.7c7,23.2,10.5,50.3,10.5,81.4s-1.8,55.4-5.4,73.2c-3.5,17.8-8.2,31.8-13.9,42.2
	c-5.3,10.1-13.4,18.5-23.1,24.4c-9.1,5.6-19.2,9.6-29.7,11.7c-11.4,1.9-23,2.8-34.5,2.6c-10.7,0.1-21.4-0.4-32.1-1.6
	c-8.9-1.1-17.6-3.3-26-6.6c-8.6-3-16.2-8.1-22.2-14.9C329.2,386.5,323.9,377.8,319.7,368.6L319.7,368.6z M643.9,263.4h38.4
	c8.3,0,13.5-2.2,15.7-6.8c2.2-4.6,3.4-12,3.4-22.8s-1.3-18.3-4-22.8s-7.7-6.8-15.2-6.8h-38.4L643.9,263.4L643.9,263.4z M570.8,418.6
	V126.4h116.8c25.3,0,44.9,7.2,58.9,21.5c14,14.3,21,38.5,21.2,72.4c0,33.3-4.1,55.8-12.5,67.4c-3.4,4.7-7.5,8.9-12,12.6
	c-4.4,3.1-9.1,5.7-14.1,7.7l45.2,110.7h-79.2l-33.6-103.5l-21.6-5.3v109L570.8,418.6z M815.5,290.7V126.4h69.2v164.3
	c0,27.3,2.6,43.9,7.8,50.3c5.8,6.8,14.7,10.2,26.8,10.2c11.1,0,19.6-3.6,25.1-10.7c4.8-5.8,7.5-22.4,7.5-49.5V126.5h69.8v164.3
	c0,41.6-5.7,72.1-17.1,91.1c-3.2,5.7-7,11.1-11.2,16.3c-3.9,4.4-8.5,8-13.8,10.7c-4.6,2.6-9.4,4.9-14.4,6.8
	c-5.1,1.6-10.3,2.7-15.7,3.4c-7.3,1-14.6,1.5-22,1.6h-20c-7.2,0-14.1-0.4-20.8-1c-8.9-1.1-17.7-3.5-26-7.2
	c-9.9-3.9-18.3-10.8-24.2-19.6c-5.5-8.7-10.4-21.7-14.6-38.8C817.6,337,815.5,315.9,815.5,290.7L815.5,290.7z M1062,225.3V201
	c0-25.1,6.5-44.1,19.4-57.1c13.1-13.1,30.2-20.4,51.2-22.1c9.3-0.7,18.3-1.1,27.3-1.1c32.5,0,60.4,4.7,83.6,14.2v60.4
	c-28.4-3.1-57.1-4.4-85.7-4c-10.5,0-17.5,1-21.1,3s-5.3,6.7-5.3,14.7v4.5c0,7,1.2,11.8,3.9,14.9s8.5,4.3,17.6,4.3h33.6
	c28.3,0,48,13.7,58.9,41c5.3,13.9,8,28.7,7.9,43.6v13.2c0,59.7-24.2,89.5-72.6,89.5c-34.7,0-57.6-0.6-68.2-1.8
	c-14.5-2.2-28.6-6.1-42.2-11.5v-60.6c26.3,2.8,57.1,4.3,92.6,4.2c7.6,0,13.1-1.2,16.1-3.8c3.2-2.5,4.8-6.8,4.8-12.5v-6.3
	c0-6.1-1.3-10.7-4-13.4c-2.7-2.7-7.5-4.3-14.6-4.3h-32.4c-11.5,0.4-23-2.2-33.3-7.2c-8.2-3.9-15.4-9.6-21-16.7
	c-4.9-6.9-8.6-14.6-11-22.8C1063.8,250.9,1062.1,238.1,1062,225.3L1062,225.3z"/>
<path class="st1" d="M-713.1,0h2135.6v1510H-713.1V0z"/>
</svg>
