<svg id="Laag_1" data-name="Laag 1" xmlns="http://www.w3.org/2000/svg" viewBox="0 0 2893.51 546.85"><defs><style>.cls-1{fill:#081419;}.cls-2{fill:#397f3b;}.cls-3{fill:#2e4047;}.cls-4{fill:#439d49;}.cls-5{fill:#071216;}.cls-6{fill:none;}</style></defs><path class="cls-1" d="M540.9,157.79s85.36,34.33,58.72,47S543.9,210,540.9,157.79ZM367.42,13.71s-9.17,40.54,13.7,79.14c0,0-113.17-13.75-227.61,18.34,0,0-14.42,30.76,2.6,68,0,0-99.47,38-147.2,87,0,0,111.85,20.93,100.8,131.5,0,0,118.41-17,265.61,128.2C420.44,283.8,592.39,185.55,693.9,296.33c0,0,30.76-68-62.14-117.76,0,0-9.83-47.72-95.5-67.38,0,0-34-14.41-51-50.37,0,0-5.25,6.57-7.23,26.18-.06,0-82.41-65.45-110.58-73.29Z"/><path class="cls-2" d="M266,5.2s-31.38,39.27-39.22,66l155,107.36-.77.66L215,100.75s-9.16,13.75-15.07,56.89c0,0,95,41.46,166.24,48.94-.1.51-.15,1.07-.26,1.58-19.35,1.07-70.33,1.38-168.63-13.9,0,0-8.51,55,13.75,90.91,0,0,101.76-45.22,156-58.47.21.72.41,1.48.67,2.19-24,13.7-108.69,62.8-142.26,93.57,0,0,15.69,45.78,49.76,65.44,0,0,75.13-113.27,101.51-142.61l1.17,1.28c-9.22,16.5-82.51,147.44-83.73,161.6,0,0,39.93,35.35,83.07,47.12,0,0-20.07-125.5,32.49-193.19,1.18.1,2.3.15,3.47.15a47.59,47.59,0,0,0,31.12-11.61,37.14,37.14,0,0,0,10.54-12.78,47.75,47.75,0,0,0-1.07-48.54,39.39,39.39,0,0,0-28.72-21,46.36,46.36,0,0,0-27,1c-.56-.46-111.79-101.4-132-164Z"/><path class="cls-3" d="M597.13,251s-100.85-5.15-176.69,32.8c0,0-25,51.79-17.57,94.37C402.82,378.17,484.21,263,597.13,251Zm2.29-61.07s-28.68-34.23-69.83-51.8c0,0,9.73,28.68,13.45,37.95l.5-15.59C543.49,160.39,570.69,168.13,599.42,189.88Z"/><path class="cls-4" d="M398.08,169.3,248.55,29.39,266,5.2S269.48,32.5,398.08,169.3Zm-17.06,10L215,100.75a93.48,93.48,0,0,0-9.32,27.65ZM366,208.21s-65.4,3.62-168.64-13.9c0,0-4.28,33.82.1,50.93Zm1.78,20.73s-107.06,60-142.25,93.57c0,0,7.79,20.27,14.05,28.82Zm10.13,17.63s-62.24,109.7-83.73,161.6c0,0,16.81,14.21,30.25,22.46Zm42.68-70.49a44.85,44.85,0,0,1,0,79,39.67,39.67,0,0,0,0-79Z"/><path class="cls-5" d="M773.46,437.27V104h78.93V236.47h69.23V104h79.16V437.27H921.62V315.66H852.39V437.27Zm559.45-250.1c-5.82,4.1-10,12.66-12.61,25.43s-3.89,35-3.89,66.9,2.48,53.15,7.66,64.24,17,16.39,35.37,16.39,30.84-5.66,36.77-17.23,9-31.22,9-58.94-.54-46.89-1.61-58.1a82.44,82.44,0,0,0-6.69-27.48,24.88,24.88,0,0,0-13.37-13.86,71.5,71.5,0,0,0-25.13-3.5C1347.25,181,1338.74,183.07,1332.91,187.17Zm-79.8,196.22a167.77,167.77,0,0,1-12-45.56,530.71,530.71,0,0,1-.21-123.42,300,300,0,0,1,8.73-43.75A103.25,103.25,0,0,1,1264.33,140,89.23,89.23,0,0,1,1283,120a73.54,73.54,0,0,1,23.19-11.57,151.07,151.07,0,0,1,46.26-6.63c16.72,0,29.22.49,37.53,1.33a138.74,138.74,0,0,1,26,5.42,73,73,0,0,1,23.29,11.57,89,89,0,0,1,18.65,20,105.09,105.09,0,0,1,14.45,30.38q12,39.77,12,92.81t-6.25,83.52q-6,30.38-15.85,48.1a72.1,72.1,0,0,1-26.42,27.84,103.86,103.86,0,0,1-33.86,13.38,215.93,215.93,0,0,1-39.36,3,307.52,307.52,0,0,1-36.56-1.81,132.23,132.23,0,0,1-29.65-7.47,59.65,59.65,0,0,1-25.35-17,137.63,137.63,0,0,1-17.9-29.53Zm546.52-136.92h43.78c9.49,0,15.42-2.53,17.9-7.71s3.88-13.74,3.88-26-1.51-20.85-4.63-26-8.85-7.72-17.26-7.72h-43.78v67.5Zm-79.26,190.8V104h133.18q43.18,0,67.18,24.47c16,16.27,24,43.87,24.15,82.56q0,57-14.23,76.9a74.08,74.08,0,0,1-13.7,14.35,79.15,79.15,0,0,1-16.06,8.8l51.54,126.31h-90.26l-38.28-118-24.58-6.14V437.51Zm460.46-145.84V104h78.94V291.43c0,31.1,3,50.14,8.95,57.37,6.57,7.72,16.82,11.57,30.62,11.57,12.73,0,22.32-4.09,28.58-12.17,5.5-6.63,8.52-25.55,8.52-56.53V104.12H2416V291.55c0,47.49-6.47,82.2-19.52,103.9A132.42,132.42,0,0,1,2383.67,414,54.63,54.63,0,0,1,2368,426.18a120.46,120.46,0,0,1-16.39,7.72,100.71,100.71,0,0,1-17.9,3.85,217,217,0,0,1-25.12,1.81h-22.76c-8.19,0-16.06-.36-23.72-1.08a102.28,102.28,0,0,1-29.66-8.2,59.17,59.17,0,0,1-27.6-22.42c-6.26-9.88-11.86-24.71-16.72-44.23s-7.33-43.51-7.33-72.2Zm471.25-72.2V191.51q0-42.85,22.1-65.09c14.88-14.94,34.4-23.26,58.45-25.19,10.57-.84,20.92-1.32,31.06-1.32q55.64,0,95.32,16.15V185a801.78,801.78,0,0,0-97.7-4.58c-12,0-20,1.08-24.15,3.37s-6,7.6-6,16.76v5.06c0,8,1.4,13.5,4.42,17s9.71,4.94,20.06,4.94h38.28q48.52,0,67.18,46.76a135.73,135.73,0,0,1,9,49.66v14.95q0,102.15-82.82,102.09c-39.57,0-65.67-.72-77.75-2.05a210.46,210.46,0,0,1-48.09-13.14V357c30,3.25,65.13,4.94,105.57,4.82q13.11,0,18.44-4.34c3.56-2.89,5.5-7.71,5.5-14.34v-7.23c0-7-1.51-12.18-4.64-15.31s-8.52-4.94-16.71-4.94h-36.88a81.74,81.74,0,0,1-38-8.2,65.69,65.69,0,0,1-23.94-19,90.59,90.59,0,0,1-12.62-26,157.53,157.53,0,0,1-6-43.15Z"/><path class="cls-6" d="M0,0H2135.6V1510H0Z"/></svg>